<mxfile host="Electron" agent="Mozilla/5.0 (X11; Linux x86_64) AppleWebKit/537.36 (KHTML, like Gecko) draw.io/26.2.15 Chrome/134.0.6998.205 Electron/35.2.1 Safari/537.36" version="26.2.15">
  <diagram name="Page-1" id="PAKdYdHupEvDetTnAoyt">
    <mxGraphModel dx="1746" dy="1025" grid="1" gridSize="10" guides="1" tooltips="1" connect="1" arrows="1" fold="1" page="1" pageScale="1" pageWidth="850" pageHeight="1100" math="0" shadow="0">
      <root>
        <mxCell id="0" />
        <mxCell id="1" parent="0" />
        <mxCell id="6-NJ4PBRQ0lAu8DthHmS-51" value="" style="rounded=0;whiteSpace=wrap;html=1;opacity=60;fillColor=#D9D9D9;strokeColor=none;" vertex="1" parent="1">
          <mxGeometry x="460" y="210" width="386" height="170" as="geometry" />
        </mxCell>
        <mxCell id="6-NJ4PBRQ0lAu8DthHmS-49" value="" style="rounded=0;whiteSpace=wrap;html=1;opacity=60;fillColor=#D9D9D9;strokeColor=none;" vertex="1" parent="1">
          <mxGeometry x="114" y="90" width="256" height="290" as="geometry" />
        </mxCell>
        <mxCell id="6-NJ4PBRQ0lAu8DthHmS-23" value="" style="image;aspect=fixed;html=1;points=[];align=center;fontSize=12;image=img/lib/azure2/app_services/Notification_Hubs.svg;" vertex="1" parent="1">
          <mxGeometry x="210" y="152" width="67" height="56.00000000000001" as="geometry" />
        </mxCell>
        <mxCell id="6-NJ4PBRQ0lAu8DthHmS-36" value="" style="image;aspect=fixed;html=1;points=[];align=center;fontSize=12;image=img/lib/azure2/general/File.svg;" vertex="1" parent="1">
          <mxGeometry x="540" y="273.25" width="35.31" height="43.5" as="geometry" />
        </mxCell>
        <mxCell id="6-NJ4PBRQ0lAu8DthHmS-38" value="" style="group" vertex="1" connectable="0" parent="1">
          <mxGeometry x="390.00000000000006" y="450" width="77.27" height="60" as="geometry" />
        </mxCell>
        <mxCell id="6-NJ4PBRQ0lAu8DthHmS-29" value="" style="points=[];aspect=fixed;html=1;align=center;shadow=0;dashed=0;fillColor=#FF6A00;strokeColor=none;shape=mxgraph.alibaba_cloud.amqp_advanced_message_queuing_protocol;" vertex="1" parent="6-NJ4PBRQ0lAu8DthHmS-38">
          <mxGeometry x="13.635882352941175" width="46.94379764705882" height="49.08917647058823" as="geometry" />
        </mxCell>
        <mxCell id="6-NJ4PBRQ0lAu8DthHmS-39" value="" style="verticalLabelPosition=bottom;html=1;verticalAlign=top;align=center;strokeColor=none;fillColor=#00BEF2;shape=mxgraph.azure.queue_generic;pointerEvents=1;" vertex="1" parent="1">
          <mxGeometry x="351.67" y="500" width="166.67" height="50" as="geometry" />
        </mxCell>
        <mxCell id="6-NJ4PBRQ0lAu8DthHmS-41" value="Azure Communication Services" style="text;html=1;align=center;verticalAlign=middle;resizable=0;points=[];autosize=1;strokeColor=none;fillColor=none;" vertex="1" parent="1">
          <mxGeometry x="148.5" y="120" width="190" height="30" as="geometry" />
        </mxCell>
        <mxCell id="6-NJ4PBRQ0lAu8DthHmS-37" value="&lt;b&gt;RabbitMQ Message Broker&lt;/b&gt;" style="text;html=1;align=center;verticalAlign=middle;resizable=0;points=[];autosize=1;strokeColor=none;fillColor=none;" vertex="1" parent="1">
          <mxGeometry x="338.64" y="549.0936363636364" width="180" height="30" as="geometry" />
        </mxCell>
        <mxCell id="6-NJ4PBRQ0lAu8DthHmS-43" style="edgeStyle=orthogonalEdgeStyle;rounded=0;orthogonalLoop=1;jettySize=auto;html=1;entryX=0.528;entryY=0.931;entryDx=0;entryDy=0;entryPerimeter=0;" edge="1" parent="1" target="6-NJ4PBRQ0lAu8DthHmS-23">
          <mxGeometry relative="1" as="geometry">
            <mxPoint x="245" y="293" as="sourcePoint" />
          </mxGeometry>
        </mxCell>
        <mxCell id="6-NJ4PBRQ0lAu8DthHmS-44" style="rounded=0;orthogonalLoop=1;jettySize=auto;html=1;entryX=0.5;entryY=1;entryDx=0;entryDy=0;exitX=0.124;exitY=-0.01;exitDx=0;exitDy=0;exitPerimeter=0;" edge="1" parent="1" source="6-NJ4PBRQ0lAu8DthHmS-39" target="6-NJ4PBRQ0lAu8DthHmS-49">
          <mxGeometry relative="1" as="geometry">
            <mxPoint x="246.60000000000014" y="373.2839999999999" as="targetPoint" />
          </mxGeometry>
        </mxCell>
        <mxCell id="6-NJ4PBRQ0lAu8DthHmS-45" value="NotifyEvent" style="text;html=1;align=center;verticalAlign=middle;resizable=0;points=[];autosize=1;strokeColor=none;fillColor=none;" vertex="1" parent="1">
          <mxGeometry x="298" y="420" width="80" height="30" as="geometry" />
        </mxCell>
        <mxCell id="6-NJ4PBRQ0lAu8DthHmS-48" value="GoodExpense.Notifications.API" style="verticalLabelPosition=bottom;verticalAlign=top;html=1;shape=mxgraph.infographic.shadedCube;isoAngle=15;fillColor=#43D2FF;strokeColor=none;" vertex="1" parent="1">
          <mxGeometry x="218.5" y="293" width="50" height="58" as="geometry" />
        </mxCell>
        <mxCell id="6-NJ4PBRQ0lAu8DthHmS-50" value="&lt;b&gt;Notification Microservice&lt;/b&gt;" style="text;html=1;align=center;verticalAlign=middle;resizable=0;points=[];autosize=1;strokeColor=none;fillColor=none;" vertex="1" parent="1">
          <mxGeometry x="158.5" y="90" width="170" height="30" as="geometry" />
        </mxCell>
        <mxCell id="6-NJ4PBRQ0lAu8DthHmS-63" style="edgeStyle=orthogonalEdgeStyle;rounded=0;orthogonalLoop=1;jettySize=auto;html=1;" edge="1" parent="1" source="6-NJ4PBRQ0lAu8DthHmS-55" target="6-NJ4PBRQ0lAu8DthHmS-36">
          <mxGeometry relative="1" as="geometry" />
        </mxCell>
        <mxCell id="6-NJ4PBRQ0lAu8DthHmS-55" value="GoodExpense.Invoices.API" style="verticalLabelPosition=bottom;verticalAlign=top;html=1;shape=mxgraph.infographic.shadedCube;isoAngle=15;fillColor=#43D2FF;strokeColor=none;" vertex="1" parent="1">
          <mxGeometry x="710" y="266" width="50" height="58" as="geometry" />
        </mxCell>
        <mxCell id="6-NJ4PBRQ0lAu8DthHmS-56" value="&lt;b&gt;Invoice Microservice&lt;/b&gt;" style="text;html=1;align=center;verticalAlign=middle;resizable=0;points=[];autosize=1;strokeColor=none;fillColor=none;" vertex="1" parent="1">
          <mxGeometry x="583" y="210" width="140" height="30" as="geometry" />
        </mxCell>
        <mxCell id="6-NJ4PBRQ0lAu8DthHmS-58" value="" style="endArrow=classic;html=1;rounded=0;exitX=0.91;exitY=0;exitDx=0;exitDy=0;exitPerimeter=0;entryX=0.75;entryY=1;entryDx=0;entryDy=0;" edge="1" parent="1" source="6-NJ4PBRQ0lAu8DthHmS-39" target="6-NJ4PBRQ0lAu8DthHmS-51">
          <mxGeometry width="50" height="50" relative="1" as="geometry">
            <mxPoint x="590" y="490" as="sourcePoint" />
            <mxPoint x="640" y="440" as="targetPoint" />
          </mxGeometry>
        </mxCell>
        <mxCell id="6-NJ4PBRQ0lAu8DthHmS-59" value="" style="endArrow=classic;html=1;rounded=0;entryX=0.745;entryY=0.023;entryDx=0;entryDy=0;entryPerimeter=0;exitX=0.681;exitY=0.994;exitDx=0;exitDy=0;exitPerimeter=0;" edge="1" parent="1" source="6-NJ4PBRQ0lAu8DthHmS-51" target="6-NJ4PBRQ0lAu8DthHmS-39">
          <mxGeometry width="50" height="50" relative="1" as="geometry">
            <mxPoint x="570" y="450" as="sourcePoint" />
            <mxPoint x="620" y="400" as="targetPoint" />
          </mxGeometry>
        </mxCell>
        <mxCell id="6-NJ4PBRQ0lAu8DthHmS-60" value="CreateExpenseEvent" style="text;html=1;align=center;verticalAlign=middle;whiteSpace=wrap;rounded=0;" vertex="1" parent="1">
          <mxGeometry x="640" y="440" width="60" height="30" as="geometry" />
        </mxCell>
        <mxCell id="6-NJ4PBRQ0lAu8DthHmS-61" value="&lt;div&gt;&lt;font style=&quot;font-size: 10px;&quot;&gt;&lt;i&gt;(on invoice creation)&lt;/i&gt;&lt;/font&gt;&lt;/div&gt;NotifyEvent" style="text;html=1;align=center;verticalAlign=middle;resizable=0;points=[];autosize=1;strokeColor=none;fillColor=none;" vertex="1" parent="1">
          <mxGeometry x="502.65" y="410" width="110" height="40" as="geometry" />
        </mxCell>
        <mxCell id="6-NJ4PBRQ0lAu8DthHmS-62" value="Invoice PDF document" style="text;html=1;align=center;verticalAlign=middle;resizable=0;points=[];autosize=1;strokeColor=none;fillColor=none;" vertex="1" parent="1">
          <mxGeometry x="487.65" y="316.75" width="140" height="30" as="geometry" />
        </mxCell>
        <mxCell id="6-NJ4PBRQ0lAu8DthHmS-64" value="" style="rounded=0;whiteSpace=wrap;html=1;opacity=60;fillColor=#D9D9D9;strokeColor=none;" vertex="1" parent="1">
          <mxGeometry x="86" y="618" width="314" height="170" as="geometry" />
        </mxCell>
        <mxCell id="6-NJ4PBRQ0lAu8DthHmS-67" value="GoodExpense.Users.API" style="verticalLabelPosition=bottom;verticalAlign=top;html=1;shape=mxgraph.infographic.shadedCube;isoAngle=15;fillColor=#43D2FF;strokeColor=none;" vertex="1" parent="1">
          <mxGeometry x="290" y="674" width="50" height="58" as="geometry" />
        </mxCell>
        <mxCell id="6-NJ4PBRQ0lAu8DthHmS-68" value="&lt;b&gt;User Microservice&lt;/b&gt;" style="text;html=1;align=center;verticalAlign=middle;resizable=0;points=[];autosize=1;strokeColor=none;fillColor=none;" vertex="1" parent="1">
          <mxGeometry x="168" y="618" width="130" height="30" as="geometry" />
        </mxCell>
        <mxCell id="6-NJ4PBRQ0lAu8DthHmS-26" value="SQL Database" style="image;aspect=fixed;html=1;points=[];align=center;fontSize=12;image=img/lib/azure2/databases/SQL_Database.svg;labelBackgroundColor=none;" vertex="1" parent="1">
          <mxGeometry x="108.5" y="671" width="48" height="64" as="geometry" />
        </mxCell>
        <mxCell id="6-NJ4PBRQ0lAu8DthHmS-70" style="edgeStyle=orthogonalEdgeStyle;rounded=0;orthogonalLoop=1;jettySize=auto;html=1;entryX=0.995;entryY=0.506;entryDx=0;entryDy=0;entryPerimeter=0;targetPerimeterSpacing=23;endSize=5;jumpSize=7;startArrow=classic;startFill=1;" edge="1" parent="1" source="6-NJ4PBRQ0lAu8DthHmS-67" target="6-NJ4PBRQ0lAu8DthHmS-26">
          <mxGeometry relative="1" as="geometry" />
        </mxCell>
        <mxCell id="6-NJ4PBRQ0lAu8DthHmS-72" style="rounded=0;orthogonalLoop=1;jettySize=auto;html=1;entryX=0.005;entryY=0.97;entryDx=0;entryDy=0;entryPerimeter=0;exitX=0.5;exitY=0;exitDx=0;exitDy=0;" edge="1" parent="1" source="6-NJ4PBRQ0lAu8DthHmS-64" target="6-NJ4PBRQ0lAu8DthHmS-39">
          <mxGeometry relative="1" as="geometry" />
        </mxCell>
        <mxCell id="6-NJ4PBRQ0lAu8DthHmS-73" value="&lt;div&gt;&lt;i&gt;&lt;font style=&quot;font-size: 10px;&quot;&gt;(on user register)&lt;/font&gt;&lt;/i&gt;&lt;/div&gt;NotifyEvent" style="text;html=1;align=center;verticalAlign=middle;resizable=0;points=[];autosize=1;strokeColor=none;fillColor=none;" vertex="1" parent="1">
          <mxGeometry x="218.5" y="549.09" width="100" height="40" as="geometry" />
        </mxCell>
        <mxCell id="6-NJ4PBRQ0lAu8DthHmS-76" value="" style="rounded=0;whiteSpace=wrap;html=1;opacity=60;fillColor=#D9D9D9;strokeColor=none;" vertex="1" parent="1">
          <mxGeometry x="460" y="618" width="386" height="170" as="geometry" />
        </mxCell>
        <mxCell id="6-NJ4PBRQ0lAu8DthHmS-77" value="GoodExpense.Expenses.API" style="verticalLabelPosition=bottom;verticalAlign=top;html=1;shape=mxgraph.infographic.shadedCube;isoAngle=15;fillColor=#43D2FF;strokeColor=none;" vertex="1" parent="1">
          <mxGeometry x="710" y="674" width="50" height="58" as="geometry" />
        </mxCell>
        <mxCell id="6-NJ4PBRQ0lAu8DthHmS-78" value="&lt;b&gt;Expense Microservice&lt;/b&gt;" style="text;html=1;align=center;verticalAlign=middle;resizable=0;points=[];autosize=1;strokeColor=none;fillColor=none;" vertex="1" parent="1">
          <mxGeometry x="578" y="618" width="150" height="30" as="geometry" />
        </mxCell>
        <mxCell id="6-NJ4PBRQ0lAu8DthHmS-79" value="SQL Database" style="image;aspect=fixed;html=1;points=[];align=center;fontSize=12;image=img/lib/azure2/databases/SQL_Database.svg;labelBackgroundColor=none;" vertex="1" parent="1">
          <mxGeometry x="528.5" y="671" width="48" height="64" as="geometry" />
        </mxCell>
        <mxCell id="6-NJ4PBRQ0lAu8DthHmS-80" style="edgeStyle=orthogonalEdgeStyle;rounded=0;orthogonalLoop=1;jettySize=auto;html=1;entryX=0.995;entryY=0.506;entryDx=0;entryDy=0;entryPerimeter=0;targetPerimeterSpacing=23;endSize=5;jumpSize=7;startArrow=classic;startFill=1;" edge="1" parent="1" source="6-NJ4PBRQ0lAu8DthHmS-77" target="6-NJ4PBRQ0lAu8DthHmS-79">
          <mxGeometry relative="1" as="geometry" />
        </mxCell>
        <mxCell id="6-NJ4PBRQ0lAu8DthHmS-83" style="rounded=0;orthogonalLoop=1;jettySize=auto;html=1;entryX=0.949;entryY=0.751;entryDx=0;entryDy=0;entryPerimeter=0;exitX=0.5;exitY=0;exitDx=0;exitDy=0;" edge="1" parent="1" source="6-NJ4PBRQ0lAu8DthHmS-76" target="6-NJ4PBRQ0lAu8DthHmS-39">
          <mxGeometry relative="1" as="geometry" />
        </mxCell>
        <mxCell id="6-NJ4PBRQ0lAu8DthHmS-84" value="CreateExpenseEvent" style="text;html=1;align=center;verticalAlign=middle;resizable=0;points=[];autosize=1;strokeColor=none;fillColor=none;" vertex="1" parent="1">
          <mxGeometry x="560" y="549.09" width="140" height="30" as="geometry" />
        </mxCell>
        <mxCell id="6-NJ4PBRQ0lAu8DthHmS-86" style="rounded=0;orthogonalLoop=1;jettySize=auto;html=1;entryX=0.75;entryY=1;entryDx=0;entryDy=0;" edge="1" parent="1" source="6-NJ4PBRQ0lAu8DthHmS-85" target="6-NJ4PBRQ0lAu8DthHmS-64">
          <mxGeometry relative="1" as="geometry" />
        </mxCell>
        <mxCell id="6-NJ4PBRQ0lAu8DthHmS-85" value="Good Expense API&lt;br&gt;(API Gateway)" style="image;aspect=fixed;html=1;points=[];align=center;fontSize=12;image=img/lib/azure2/networking/Application_Gateways.svg;" vertex="1" parent="1">
          <mxGeometry x="389.99999999999994" y="890" width="90" height="90" as="geometry" />
        </mxCell>
        <mxCell id="6-NJ4PBRQ0lAu8DthHmS-87" style="rounded=0;orthogonalLoop=1;jettySize=auto;html=1;entryX=0.338;entryY=-0.002;entryDx=0;entryDy=0;exitX=0.837;exitY=1.002;exitDx=0;exitDy=0;exitPerimeter=0;entryPerimeter=0;" edge="1" parent="1" source="6-NJ4PBRQ0lAu8DthHmS-64" target="6-NJ4PBRQ0lAu8DthHmS-85">
          <mxGeometry relative="1" as="geometry">
            <mxPoint x="350" y="788" as="sourcePoint" />
            <mxPoint x="460" y="900" as="targetPoint" />
          </mxGeometry>
        </mxCell>
        <mxCell id="6-NJ4PBRQ0lAu8DthHmS-88" style="rounded=0;orthogonalLoop=1;jettySize=auto;html=1;entryX=0.25;entryY=1;entryDx=0;entryDy=0;exitX=0.882;exitY=0.009;exitDx=0;exitDy=0;exitPerimeter=0;" edge="1" parent="1" source="6-NJ4PBRQ0lAu8DthHmS-85" target="6-NJ4PBRQ0lAu8DthHmS-76">
          <mxGeometry relative="1" as="geometry">
            <mxPoint x="522.9699999999999" y="898.47" as="sourcePoint" />
            <mxPoint x="637.464" y="788" as="targetPoint" />
          </mxGeometry>
        </mxCell>
        <mxCell id="6-NJ4PBRQ0lAu8DthHmS-89" style="rounded=0;orthogonalLoop=1;jettySize=auto;html=1;entryX=0.674;entryY=0;entryDx=0;entryDy=0;exitX=0.19;exitY=1.013;exitDx=0;exitDy=0;exitPerimeter=0;entryPerimeter=0;" edge="1" parent="1" source="6-NJ4PBRQ0lAu8DthHmS-76" target="6-NJ4PBRQ0lAu8DthHmS-85">
          <mxGeometry relative="1" as="geometry">
            <mxPoint x="488.5" y="787" as="sourcePoint" />
            <mxPoint x="598.5" y="900" as="targetPoint" />
          </mxGeometry>
        </mxCell>
      </root>
    </mxGraphModel>
  </diagram>
</mxfile>
